<svg width="131" height="35" viewBox="0 0 131 35" fill="none" xmlns="http://www.w3.org/2000/svg">
<path d="M12.6464 3.26261H15.5153C17.2624 2.99986 19.0466 3.23087 20.6742 3.93054C22.7161 5.18461 24.1971 7.20353 24.8013 9.55661C25.2291 10.7897 25.2291 10.7897 26.2609 10.353H27.0662V0.590866H0.063669V2.31208H1.17095C1.65213 2.30868 2.12794 2.41537 2.56342 2.62432C2.99891 2.83326 3.38301 3.13915 3.6875 3.51951C4.71928 5.21503 4.89544 7.11608 4.89544 17.0067C4.89544 27.5138 4.66895 30.0828 3.6875 31.393C3.4452 31.7298 3.13151 32.0064 2.76983 32.2021C2.40815 32.3978 2.00783 32.5076 1.59876 32.5233C0.063669 32.8059 0.063669 32.7802 0.063669 33.4738C-0.021223 33.7058 -0.021223 33.9612 0.063669 34.1931H17.1007C17.2134 33.9663 17.2722 33.7154 17.2722 33.461C17.2722 33.2066 17.2134 32.9557 17.1007 32.7288C16.6881 32.6116 16.2675 32.5258 15.8424 32.4719C15.3826 32.4161 14.9281 32.3216 14.4835 32.1893C13.8468 31.7149 13.3425 31.079 13.0203 30.3446C12.6981 29.6102 12.5692 28.8027 12.6464 28.0019C12.3948 26.3064 12.2689 23.1979 12.2689 20.6289V18.5994H13.2755C14.5297 18.5603 15.7831 18.6986 17 19.0105C17.583 19.3782 18.0793 19.8729 18.4534 20.4591C18.8275 21.0452 19.0703 21.7085 19.1643 22.4015L19.3908 23.1979H20.9258V11.8173H19.5166L19.2901 12.922C19.1948 13.6307 18.938 14.3067 18.5402 14.8956C18.1425 15.4846 17.615 15.97 17 16.313C16.4045 16.494 15.7771 16.5378 15.163 16.4415H12.2689V13.667C12.2689 10.7897 12.4199 4.72693 12.5206 3.7764L12.6464 3.26261ZM130.421 23.6346C129.231 21.6802 127.376 20.2437 125.212 19.6013C123.552 19.0719 122.019 18.1971 120.707 17.0324C120.412 16.7409 120.191 16.3802 120.064 15.9817C119.937 15.5832 119.907 15.1589 119.977 14.746C119.979 13.9359 120.296 13.1598 120.858 12.588C121.239 12.1807 121.721 11.8867 122.253 11.7374C122.785 11.5881 123.346 11.5891 123.878 11.7402C124.978 12.0603 125.973 12.6782 126.757 13.5285C127.541 14.3787 128.085 15.4296 128.332 16.5699C128.735 17.726 128.785 17.726 129.515 17.4177L129.968 17.2379V10.8411L129.641 10.687C127.163 9.79869 124.535 9.43166 121.915 9.60799C119.658 9.66636 117.505 10.5825 115.875 12.177C115.136 12.8832 114.557 13.7457 114.179 14.7042C113.801 15.6627 113.633 16.6941 113.686 17.726C113.7 19.3036 114.313 20.8141 115.397 21.9391C116.595 23.1414 118.064 24.0238 119.675 24.5081C123.576 26.0752 124.708 27.0771 124.708 28.901C124.725 29.6702 124.485 30.4224 124.028 31.0339C123.57 31.6455 122.923 32.0801 122.192 32.2664C121.313 32.4635 120.403 32.4635 119.524 32.2664C118.374 31.8106 117.346 31.0809 116.528 30.1381C115.709 29.1953 115.123 28.0666 114.818 26.8459L114.491 26.0238H114.038C113.822 26.0402 113.609 26.0923 113.409 26.1779H113.157V33.4738H113.585C115.285 34.0512 117.039 34.4472 118.82 34.6556H121.336C122.427 34.7373 123.525 34.6331 124.582 34.3473C125.925 34.0943 127.18 33.4869 128.222 32.5856C129.264 31.6842 130.057 30.5203 130.521 29.2093C130.822 28.4771 130.976 27.691 130.974 26.8972C131.074 25.7789 130.883 24.6537 130.421 23.6346ZM106.715 10.353C105.207 9.70667 103.582 9.39314 101.947 9.43299C100.312 9.47283 98.7037 9.86515 97.2276 10.5842C95.8401 11.277 94.6104 12.2591 93.6177 13.4671C92.6251 14.6752 91.8916 16.0822 91.4647 17.5975C90.9203 19.2505 90.6897 20.9943 90.7852 22.7355C90.7672 23.6828 90.8431 24.6296 91.0117 25.5614C91.4181 27.8524 92.5016 29.9616 94.1166 31.6057C95.7315 33.2497 97.8007 34.3499 100.046 34.7583C101.508 34.9464 102.988 34.9464 104.45 34.7583C105.967 34.4853 107.42 33.9185 108.728 33.0885C109.811 32.469 110.727 31.5866 111.396 30.5195C111.353 30.3521 111.277 30.1952 111.173 30.0584C111.07 29.9215 110.94 29.8075 110.792 29.7231C110.505 29.8293 110.233 29.9763 109.986 30.1598C108.735 31.002 107.257 31.4241 105.759 31.3673C104.764 31.4359 103.768 31.2779 102.84 30.9046C101.913 30.5314 101.079 29.9523 100.398 29.2093C99.8718 28.71 99.4371 28.1183 99.115 27.4624C98.333 25.8654 97.9116 24.1097 97.8819 22.3245V21.3226H111.824V20.8088C111.854 20.2954 111.854 19.7807 111.824 19.2674C111.819 17.4534 111.343 15.6731 110.446 14.1074C109.549 12.5417 108.261 11.2464 106.715 10.353ZM99.6938 19.2417H97.9322V17.726C98.511 13.8468 99.9454 11.5347 101.707 11.5347C103.469 11.5347 104.224 13.8211 104.551 18.0086V19.1903H103.041L99.6938 19.2417ZM63.5058 9.50523C62.6363 9.47081 61.7718 9.65612 60.9893 10.0447C59.2884 10.8879 57.9146 12.2904 57.0886 14.0266L56.7615 14.6432V9.50523H56.6357C56.3337 9.50523 47.0225 11.4063 46.7205 11.5347C46.4185 11.6632 46.5191 11.6889 46.5191 12.1513C46.5191 12.6137 46.5191 12.6908 46.7205 12.7165L47.7019 12.922C47.9768 12.9289 48.2465 12.9995 48.4907 13.1286C48.7349 13.2577 48.9471 13.4418 49.1112 13.667C49.7403 14.5147 49.8662 16.0048 49.8662 22.3501C49.9905 25.2068 49.8726 28.069 49.5138 30.9049C49.4294 31.3325 49.217 31.7228 48.9059 32.0219C48.5949 32.321 48.2006 32.5141 47.7774 32.5747L46.9218 32.7545H46.5946V33.4738C46.5033 33.7134 46.5033 33.9792 46.5946 34.2188H60.6621V33.4738C60.7109 33.228 60.7109 32.9747 60.6621 32.7288C59.8151 32.6951 58.9729 32.5834 58.1456 32.3949C57.6951 32.1543 57.3265 31.7801 57.0884 31.3215C56.8504 30.8629 56.7539 30.3415 56.8118 29.8259C56.6105 28.3359 56.5098 23.9686 56.5602 20.6289C56.6105 17.2892 56.5602 17.0837 56.837 16.8525C57.6791 16.1934 58.7211 15.857 59.7813 15.902C60.7807 15.9242 61.7619 16.1791 62.6502 16.647C62.9582 16.8216 63.2885 16.9513 63.6317 17.0324C63.6317 17.0324 66.1482 10.8154 66.1482 10.5328C65.8262 10.1508 65.4159 9.85678 64.9545 9.67736C64.4932 9.49794 63.9952 9.43878 63.5058 9.50523ZM46.5443 20.295C46.4565 18.4592 45.9402 16.6714 45.0384 15.0806C44.1367 13.4897 42.8756 12.1419 41.3602 11.1494C39.5594 10.1576 37.5558 9.61078 35.5104 9.55278C33.465 9.49478 31.4348 9.92724 29.5828 10.8154C26.9643 12.225 24.9872 14.6211 24.0715 17.4948C23.1257 20.7122 23.1257 24.1422 24.0715 27.3597C24.5674 29.1181 25.4941 30.7184 26.7642 32.0095C28.3461 33.5852 30.3859 34.5948 32.5775 34.8868C33.9843 35.0069 35.3985 35.0069 36.8053 34.8868C37.323 34.8064 37.8355 34.6949 38.3404 34.5528C40.3887 33.9679 42.2316 32.7995 43.6532 31.1844C45.0749 29.5694 46.0166 27.5744 46.3681 25.4329C46.6194 23.7328 46.6785 22.0089 46.5443 20.295ZM36.0755 33.1399C33.5589 33.9106 31.6715 31.4186 31.0424 26.1779C30.8113 23.4342 30.8113 20.6752 31.0424 17.9315C31.5457 13.7184 32.8291 11.5861 34.8172 11.5861C35.2183 11.5607 35.6195 11.6338 35.9873 11.7992C36.3551 11.9645 36.6787 12.2174 36.9311 12.5366C38.6172 14.2579 39.4476 17.6746 39.4476 22.8126C39.657 25.7204 39.2093 28.6384 38.139 31.3416C37.6664 32.13 36.9352 32.7217 36.0755 33.0114V33.1399ZM81.3733 10.019C80.6632 9.92575 79.9444 9.92575 79.2343 10.019C77.8712 10.0178 76.5238 10.3157 75.2833 10.8925L74.5032 11.2265V5.65176C74.6395 3.77041 74.6395 1.88135 74.5032 0C74.2012 0 64.588 1.87536 64.437 1.95243C64.3627 2.14209 64.3627 2.35362 64.437 2.54329C64.437 3.08278 64.437 3.05709 65.5694 3.31399C65.8874 3.38678 66.1928 3.50802 66.4754 3.67364C66.9666 4.14521 67.2935 4.76762 67.4065 5.44624C67.693 7.4013 67.7858 9.38086 67.6833 11.3549V33.9106L68.3628 34.0647C69.3694 34.2959 72.2131 34.784 73.1442 34.8868C75.0035 35.0377 76.8716 35.0377 78.7309 34.8868C80.7947 34.6716 82.7618 33.8856 84.4203 32.6135C86.0788 31.3415 87.3659 29.6315 88.1428 27.6679C88.606 26.4077 88.9268 25.0976 89.0991 23.7631C89.2489 21.9554 89.1898 20.1361 88.923 18.3425C88.653 16.3321 87.7838 14.4551 86.4332 12.9661C85.0827 11.4771 83.3162 10.4482 81.3733 10.019ZM74.78 32.7031C74.78 32.3692 74.5283 21.117 74.5787 16.6213V13.1018L75.3084 12.922C75.8008 12.85 76.3008 12.85 76.7932 12.922C77.3378 12.8655 77.8855 12.9917 78.3535 13.2816C79.2933 13.9438 80.0737 14.8149 80.636 15.8294C81.1983 16.844 81.5279 17.9755 81.5998 19.1389C81.7831 21.0096 81.7831 22.8943 81.5998 24.765C81.4492 27.4839 80.423 30.0758 78.6806 32.138C78.1861 32.6175 77.565 32.9389 76.8939 33.0628C76.386 33.153 75.8667 33.153 75.3588 33.0628C74.8806 33.0628 74.8806 32.9087 74.8806 32.7031H74.78Z" fill="#00493B"/>
</svg>
