<svg width="195" height="40" viewBox="0 0 195 40" fill="none" xmlns="http://www.w3.org/2000/svg">
<path d="M19.4792 39.4754L22.985 4.6747C23.1152 2.85635 23.504 2.59685 24.1532 2.59685H24.543V0.651072H18.83V2.59685H19.2197C19.9992 2.59685 20.388 3.11584 20.2587 4.6747L18.1798 25.4513L15.8423 4.6747C15.5828 2.98656 15.9726 2.59685 16.8813 2.59685H17.0115V0.651072H9.09037V2.59685H9.4801C10.2596 2.59685 10.2596 2.85635 10.3889 4.6747L11.04 9.9986L9.09037 26.88L7.01241 4.6747C6.7529 2.85635 7.14263 2.59685 7.92117 2.59685H8.05139V0.651072H0V2.59685H0.389733C1.29849 2.59685 1.29849 2.85635 1.42871 4.6747L5.06467 39.4754H10.2586L12.3366 21.5561L14.2843 39.4754H19.4792ZM52.9824 16.6209C52.9824 14.1534 52.9824 13.3749 54.5404 13.3749C55.5793 13.3749 55.5793 13.7646 55.5793 15.8424V36.6181C55.5793 37.3976 55.3198 37.5269 54.9282 37.5269H54.6687V39.4745H62.5899V37.5269H62.2002C61.6811 37.5269 61.549 37.2674 61.549 36.4879V14.6733C61.549 11.0375 60.7696 9.73911 57.2638 9.73911C56.3117 9.63563 55.353 9.86311 54.5489 10.3833C53.7448 10.9035 53.1443 11.6846 52.8484 12.5955C52.4587 10.6478 51.4197 9.73911 48.6925 9.73911C46.4852 9.73911 45.316 10.3902 44.4073 12.5955V9.73911L37.5242 10.2581V12.2057H37.7837C38.1734 12.2057 38.5631 12.5955 38.5631 13.6344V36.3586C38.5631 37.2674 38.3036 37.5269 37.7837 37.5269H37.5242V39.4745H45.1858V37.5269H44.9263C44.5366 37.5269 44.4073 37.3966 44.4073 36.7474V16.6209C44.4073 14.1534 44.4073 13.3749 45.836 13.3749C46.875 13.3749 46.875 13.7646 46.875 15.8424V36.6181C46.875 37.3976 46.6155 37.5269 46.2239 37.5269H45.8341V39.4745H53.626V37.5269H53.4958C52.9768 37.5269 52.7163 37.2674 52.7163 36.4879V16.6209H52.9824ZM107.783 39.4745H117.393V37.5269H116.741C115.962 37.5269 115.702 37.1371 115.702 35.449V20.3869H120.767V35.3197C120.767 37.0079 120.508 37.3976 119.728 37.3976H118.949V39.3433H128.429V37.3976H127.649C126.87 37.3976 126.61 37.0079 126.61 35.3197V4.6747C126.61 2.85635 126.741 2.59685 127.649 2.59685H128.429V0.651072H118.951V2.59685H119.73C120.509 2.59685 120.769 2.85635 120.769 4.6747V18.1789H115.575V4.6747C115.575 2.85635 115.835 2.59685 116.743 2.59685H117.394V0.651072H107.783V2.59685H108.563C109.342 2.59685 109.602 2.85635 109.602 4.6747V36.3586C109.602 37.1381 109.342 37.3976 108.563 37.3976H107.783V39.4745ZM178.296 39.4745H185.83V37.5269H185.565C185.046 37.5269 185.046 37.3966 185.046 36.7474V16.6209C185.046 14.1534 185.046 13.3749 186.604 13.3749C187.772 13.3749 187.772 13.7646 187.772 15.8424V36.6181C187.772 37.3976 187.513 37.5269 187.253 37.5269H186.867V39.4745H194.919V37.5269H194.529C194.01 37.5269 193.878 37.2674 193.878 36.4879V14.6733C193.878 11.0375 192.969 9.73911 189.463 9.73911C187.125 9.73911 185.827 10.3902 184.918 12.5955V0L177.646 0.651072V2.59685H178.425C178.944 2.59685 179.205 2.85635 179.205 4.02549V36.3586C179.205 37.2674 179.075 37.5269 178.425 37.5269H178.166V39.4745H178.296ZM29.8672 39.8642C36.2303 39.8642 37.1391 34.5403 37.1391 24.8012C37.1391 15.0621 36.2303 9.73818 29.8672 9.73818C23.504 9.73818 22.5952 14.9319 22.5952 24.8012C22.5952 34.5403 23.504 39.8642 29.8672 39.8642ZM77.1356 39.4745H84.7973V37.5269H84.4075C84.0178 37.5269 84.0178 37.3966 84.0178 36.7474V16.6209C84.0178 14.1534 84.0178 13.3749 85.5758 13.3749C86.6148 13.3749 86.745 13.7646 86.745 15.8424V36.6181C86.745 37.3976 86.4855 37.5269 86.0939 37.5269H85.7041V39.4745H93.7593V37.5269H93.4998C92.9807 37.5269 92.8486 37.2674 92.8486 36.4879V14.6733C92.8486 11.0375 92.0692 9.73911 88.4332 9.73911C86.226 9.73911 84.7973 10.3902 84.0178 12.5955V9.73911L76.6156 10.2581V12.2057H77.3951C77.7848 12.2057 78.1746 12.5955 78.1746 13.6344V36.3586C78.1746 37.2674 77.9151 37.5269 77.3951 37.5269H77.1356L77.1365 39.4754L77.1356 39.4745ZM146.481 39.9944C149.078 39.9944 150.117 38.6923 150.637 37.1381C151.156 39.4754 151.676 39.9944 154.663 39.9944C158.169 39.9944 158.558 37.9166 158.558 33.8911H156.87C156.87 36.8776 156.87 37.1371 156.219 37.1371C155.7 37.1371 155.7 36.8776 155.7 35.1895V15.8434C155.7 11.9481 154.398 9.87025 149.857 9.87025C146.221 9.87025 142.714 10.9092 142.844 14.9347C142.975 16.753 143.624 18.5704 145.571 18.4402C147.26 18.31 148.039 17.4013 148.039 15.9727C147.967 15.2873 147.758 14.6235 147.423 14.0211C147.088 13.4187 146.635 12.8901 146.091 12.4671C146.824 12.1394 147.629 12.0052 148.429 12.0774C149.731 12.0774 149.987 13.1163 149.987 14.9337V20.3879C143.364 22.595 142.066 23.5046 142.066 31.8151C142.066 37.658 143.624 40 146.481 40V39.9944ZM135.184 39.9944C140.118 39.9944 141.287 38.5658 141.027 30.3855H138.949C138.949 36.8786 138.689 37.2683 136.481 37.2683C133.754 37.2683 133.754 36.1001 133.754 25.0625V24.1538H141.675C141.675 12.987 140.373 9.87025 135.182 9.87025C130.377 9.87025 127.91 12.8568 127.91 25.0625C127.911 36.7484 129.858 39.9944 135.183 39.9944H135.184ZM70.2543 39.8642C75.0595 39.8642 76.358 38.4356 76.2278 30.2553H74.1498C74.1498 36.7484 73.8903 37.1381 71.5528 37.1381C68.5661 37.1381 68.8256 35.9699 68.8256 24.9323V24.0236H76.4873C76.4873 12.8568 75.4483 9.74004 70.2553 9.74004C65.4501 9.74004 62.9833 12.7266 62.9833 24.9323C62.9833 36.7446 64.9311 39.8651 70.2553 39.8651L70.2543 39.8642ZM158.948 39.4745H166.869V37.5269H166.218C165.699 37.5269 165.567 37.2674 165.567 36.4879V0L158.165 0.651072V2.59685H158.944C159.463 2.59685 159.595 2.85635 159.595 3.63577V36.6181C159.595 37.3976 159.595 37.5269 159.206 37.5269H158.816V39.4745H158.948ZM102.07 39.8642C105.706 39.8642 107.525 37.5269 107.525 33.8911C107.525 25.4504 99.9903 20.6464 99.9903 14.6733C99.9903 12.8549 100.641 12.336 101.938 12.336C103.886 12.336 104.145 13.1154 104.406 15.9717L104.665 18.6988H106.874V9.9986H105.186C105.056 11.0375 104.796 11.4272 104.796 11.3007C104.281 10.7618 103.653 10.3429 102.957 10.0737C102.261 9.8045 101.515 9.69153 100.771 9.74283C97.6538 9.74283 94.7973 11.1715 94.7973 15.8462C94.7973 23.2479 102.332 28.8313 102.332 34.4147C102.332 36.8823 101.813 37.2711 99.9941 37.2711C98.3058 37.2711 97.7868 36.4917 97.5264 32.8559L97.3962 30.3883H95.0587V39.4782H97.0064C97.1366 38.4393 97.5254 37.7901 97.7859 38.1761C98.437 38.8271 99.2137 39.8642 102.07 39.8642ZM168.171 33.3721C168.171 38.0468 168.822 39.8651 173.496 39.8651C176.742 39.8651 177.521 38.563 177.521 34.9309V29.9958H175.574V35.1895C175.574 36.8776 175.443 37.1371 174.794 37.1371C174.145 37.1371 174.015 36.8776 174.015 35.449V12.2057H177.651V9.9986H174.015V2.59685H171.937C170.508 9.21918 169.209 9.9986 167.262 9.9986H166.743V12.2057H168.045V33.3721H168.171ZM29.8672 37.2674C28.4384 37.2674 28.4384 36.4879 28.4384 24.804C28.4384 12.9917 28.4384 12.2085 29.8672 12.2085C31.1694 12.2085 31.1694 12.988 31.1694 24.6719C31.1694 36.4842 31.1694 37.2674 29.8672 37.2674ZM94.1471 11.297C99.0816 7.66126 100.121 4.80398 98.4323 2.33735C97.6538 0.90871 95.5759 0 94.1481 1.30214C92.3296 2.73078 92.8458 5.32763 96.0958 6.88276C95.4447 7.53383 94.1481 8.96061 92.9789 9.99954L94.1471 11.297ZM148.948 36.2284C147.779 36.2284 147.779 34.9263 147.779 31.0347C147.779 23.8925 147.779 22.9838 150.116 21.6853V33.8911C150.116 35.8387 149.857 36.2284 148.948 36.2284ZM68.8247 21.8118C68.9549 12.5927 69.0842 12.0727 70.3827 12.0727C71.6812 12.0727 71.551 12.5917 71.551 21.8118H68.8247ZM133.754 21.8118C133.884 12.5927 134.013 12.0727 135.312 12.0727C136.61 12.0727 136.351 12.5917 136.351 21.8118H133.754Z" fill="#00493B"/>
</svg>
